<svg width="31" height="29" viewBox="0 0 31 29" fill="none" xmlns="http://www.w3.org/2000/svg">
  <path fill-rule="evenodd" clip-rule="evenodd"
    d="M25.3564 0.201474C25.063 0.201474 24.6229 0.0548096 24.3295 0.0548096C18.3148 0.0548096 12.3001 0.0548096 6.2854 0.0548096C3.6448 0.0548096 1.44425 1.81521 1.00415 4.45581C1.00415 4.60251 1.00418 4.74919 0.857483 4.89589V24.2603C1.00418 24.5537 1.0042 24.9937 1.1509 25.2871C1.8844 27.3409 3.3514 28.6612 5.5519 28.9546H5.69857H13.1803V18.8324H9.51282V14.7248H13.1803V11.4974C13.1803 7.82989 15.3807 5.92281 18.6081 5.92281C20.2218 5.92281 21.8356 6.21614 21.8356 6.21614V9.73697H20.0751C18.3147 9.73697 17.728 10.9106 17.728 11.9375V14.5781H21.6889L21.1021 18.6856H17.728V28.808H25.2096C25.6497 28.6613 25.9432 28.6613 26.3833 28.5146C28.5838 27.7811 30.0508 25.7273 30.0508 23.3801C30.0508 20.4461 30.0508 17.5121 30.0508 14.4314V14.2846C30.0508 11.2039 30.0508 8.12326 30.0508 5.04256C29.7574 2.84206 27.8503 0.641574 25.3564 0.201474Z"
    fill="#FFCA00" />
</svg>
