<?xml version="1.0" encoding="utf-8"?>
<!-- Generator: Adobe Illustrator 25.0.0, SVG Export Plug-In . SVG Version: 6.00 Build 0)  -->
<svg version="1.1" id="Layer_1" xmlns="http://www.w3.org/2000/svg"
  xmlns:xlink="http://www.w3.org/1999/xlink" x="0px" y="0px"
  viewBox="0 0 500 500" style="enable-background:new 0 0 500 500;" xml:space="preserve">
<g>
	<path d="M250.1,500C112,500-0.1,387.9,0,249.8C0.1,111.8,112.2-0.1,250.3,0c138,0.1,249.9,112.3,249.7,250.5
		C499.8,388.2,387.8,500,250.1,500z M393.7,250.4c-0.2-21.3-0.4-42.7-1.4-64c-2.1-45.6-33.1-76.6-78.5-78.6
		c-42.4-1.8-84.8-1.9-127.2,0c-46,2-76.8,32.9-78.8,79c-1.8,42.2-1.8,84.3,0,126.5c2,46.1,32.8,77,78.9,79
		c42.4,1.9,84.8,1.9,127.2,0c40.9-1.8,70-26.1,76.9-66.3C394.9,301,393.5,275.6,393.7,250.4z" fill="#E1306C"/>
	<path d="M250.4,132.2c23.3,0.7,46.2-0.5,69,1.9c25.5,2.8,44.5,21.1,46.3,46.8c3.2,46,3.2,92,0,138c-1.8,25.6-20.9,44.9-46.3,46.7
		c-46.2,3.3-92.5,3.3-138.8,0c-25.5-1.8-43.7-21-46.5-46.6c-2-18.9-1.7-37.9-1.6-56.9c0.1-27-1-54.1,1.7-81.1
		c2.6-26,21.1-44.1,47.2-46.9C204.5,131.7,227.7,133,250.4,132.2z M323.6,250.2c0.1-40.6-32.6-73.7-73-73.9
		c-41-0.2-74.2,32.6-74.3,73.4c-0.1,40.6,32.6,73.7,73,73.9C290.4,323.8,323.5,291,323.6,250.2z M326.3,156.3
		c-9.5,0.2-17.2,8.3-16.9,17.7c0.3,9,8.2,16.7,17.2,16.7c9.4,0,17.2-7.9,17.2-17.4C343.7,163.7,335.8,156.1,326.3,156.3z" fill="#E1306C"/>
	<path d="M249.7,201.9c26-0.3,48.4,22.1,48.4,48.2c-0.1,25.9-21.8,47.7-47.8,48c-26,0.3-48.4-22.1-48.4-48.2
		C202,224,223.8,202.2,249.7,201.9z" fill="#E1306C"/>
</g>
</svg>
