<?xml version="1.0" encoding="utf-8"?>
<!-- Generator: Adobe Illustrator 25.0.0, SVG Export Plug-In . SVG Version: 6.00 Build 0)  -->
<svg version="1.1" id="Layer_1" xmlns="http://www.w3.org/2000/svg"
  xmlns:xlink="http://www.w3.org/1999/xlink" x="0px" y="0px"
  viewBox="0 0 500 500" style="enable-background:new 0 0 500 500;" xml:space="preserve">
<g>
	<path d="M249.9,0C388-0.1,500,111.9,500,250.1c0,138.1-112.2,250-250.3,249.9C111.7,499.9-0.2,387.7,0,249.5
		C0.2,111.8,112.1,0,249.9,0z M365.7,174.5c0.4-20.9-5.6-25.9-20.4-22.8c-7.7,1.6-15,4.3-22.2,7.1c-52.8,20.5-104.7,43-156.6,65.6
		c-20.2,8.8-40.5,17.5-60.7,26.5c-5,2.3-11.2,4.7-10.7,11.9c0.5,6.8,6.7,8.1,11.7,9.8c11.6,3.8,23.4,7,34.9,10.9
		c17.1,5.7,32.3,2.9,47.2-7.3c31.1-21.4,62.6-42,94-62.9c2.8-1.9,5.6-3.8,8.6-5.3c2.3-1.2,5-2.2,7,0.6c1.7,2.4,0.5,4.5-1.1,6.3
		c-3.3,3.7-6.6,7.4-10.2,10.8c-22.2,21.2-44.6,42.2-66.6,63.6c-11.9,11.5-11.4,18.7,2.4,28.2c25,17.3,50.1,34.5,75.6,51.1
		c20.8,13.6,34.3,7.5,38.6-17.2c6.3-35.5,12.5-71.1,18.3-106.7C359.5,219.4,362.8,194.2,365.7,174.5z" fill="#24A1DE"/>
</g>
</svg>
