<?xml version="1.0" encoding="utf-8"?>
<!-- Generator: Adobe Illustrator 25.0.0, SVG Export Plug-In . SVG Version: 6.00 Build 0)  -->
<svg version="1.1" id="Layer_1" xmlns="http://www.w3.org/2000/svg"
  xmlns:xlink="http://www.w3.org/1999/xlink" x="0px" y="0px"
  viewBox="0 0 500 500" style="enable-background:new 0 0 500 500;" xml:space="preserve">
<g>
	<path d="M249.9,0C388,0,500,112,500,250.1c0,138-112.2,250-250.3,249.9C111.7,499.9-0.2,387.6,0,249.5C0.2,111.8,112.2,0,249.9,0z
		 M251.4,359.5c36.7-0.7,73.4-0.7,109.9-4.6c23.6-2.5,36.9-14.7,40.3-38.2c6.2-43.8,6.5-87.6,0.3-131.4c-3.6-25.4-16.6-37.3-42-40.1
		c-21.8-2.4-43.6-3.1-65.4-3.7c-51.8-1.4-103.6-1.2-155.2,3.8c-24,2.3-37.4,14.9-40.8,38.7c-6.2,43.5-6.3,87.1-0.2,130.7
		c3.6,25.9,16.5,37.7,42.5,40.4C177.5,358.7,214.4,358.9,251.4,359.5z" fill="#FF0000"/>
	<path d="M219.4,203.4c27.1,15.6,53.3,30.7,80.8,46.6c-27.5,15.9-53.7,31-80.8,46.6C219.4,265.3,219.4,235,219.4,203.4z" fill="#FF0000"/>
</g>
</svg>
