<svg width="31" height="30" viewBox="0 0 31 30" fill="none" xmlns="http://www.w3.org/2000/svg">
  <path
    d="M18.4655 24.6405C18.4655 22.9768 18.4717 21.3071 18.4593 19.6435C18.4531 19.3011 18.5647 19.199 18.9119 19.211C19.6622 19.2351 20.4124 19.211 21.1626 19.223C21.4231 19.229 21.5409 19.163 21.5843 18.8927C21.7579 17.7456 21.9439 16.5984 22.1423 15.4513C22.2043 15.0969 22.1175 14.9708 21.7145 14.9768C20.4992 15.0008 19.2778 14.9768 18.0625 14.9948C17.7091 15.0008 17.6037 14.8927 17.6161 14.5564C17.6409 13.7155 17.6161 12.8747 17.6285 12.0338C17.6471 10.8867 18.3353 10.1119 19.5134 9.95573C20.4744 9.82961 21.4479 9.90769 22.4151 9.91369C22.7623 9.91369 22.8739 9.83561 22.8615 9.48726C22.8367 8.50227 22.8491 7.51728 22.8553 6.52629C22.8553 6.29806 22.8119 6.15391 22.5515 6.12989C21.0076 5.96773 19.4638 5.7455 17.9199 6.01578C15.0243 6.52028 13.3627 8.40017 13.2573 11.2951C13.2201 12.3762 13.2263 13.4633 13.2511 14.5443C13.2573 14.9227 13.1333 15.0068 12.7674 14.9948C11.8994 14.9708 11.0314 15.0008 10.1633 14.9828C9.7975 14.9708 9.72309 15.1029 9.72929 15.4272C9.74789 16.5564 9.74789 17.6915 9.72929 18.8206C9.72309 19.133 9.8099 19.2411 10.1447 19.229C11.0438 19.205 11.949 19.2351 12.848 19.217C13.1519 19.211 13.2511 19.2891 13.2449 19.5954C13.2325 22.9408 13.2325 26.2861 13.2449 29.6375C13.2449 29.9979 13.1023 30.0339 12.8046 29.9798C5.6867 28.7006 1.4705 23.4933 0.410244 18.5384C-0.854617 12.6044 0.794663 7.55332 5.50689 3.55931C8.74345 0.802539 12.6062 -0.272541 16.9092 0.0577907C23.5126 0.57431 29.13 5.40316 30.6119 11.7095C32.5154 19.7636 27.2265 28.0399 18.9181 29.9498C18.5585 30.0339 18.4531 29.9438 18.4531 29.5835C18.4717 27.9378 18.4655 26.2861 18.4655 24.6405Z"
    fill="#FDC901" />
</svg>
