<?xml version="1.0" encoding="utf-8"?>
<!-- Generator: Adobe Illustrator 25.0.0, SVG Export Plug-In . SVG Version: 6.00 Build 0)  -->
<svg version="1.1" id="Layer_1" xmlns="http://www.w3.org/2000/svg"
  xmlns:xlink="http://www.w3.org/1999/xlink" x="0px" y="0px"
  viewBox="0 0 500 500" style="enable-background:new 0 0 500 500;" xml:space="preserve">
<g>
	<path fill="#FFCA00" d="M391.6,297c-21.5-20.4-51.1-20.8-73.5-0.9c-10.8,9.7-21.1,20.1-31.5,30.8c-17-8.9-33.5-20.7-50.4-36.1
		c-30.3-27.6-50.1-51.7-64.1-78.1l2.7-2.6c9.4-9.2,19.2-18.6,28.2-28.8c20.2-22.8,20.3-50.9,0.5-73.4
		c-18.1-20.5-38.4-40.9-62.1-62.6c-23.8-21.8-51.6-22.1-76.4-1C58.4,50,52.5,56.1,46.9,62c-4.9,5.1-9.6,9.9-14.6,14.4
		C7,99.1-2.3,129.3,4,168.7c4.2,26.6,13.4,53.2,28.1,81.4c26.9,51.7,60.5,97,99.9,134.7c40,38.2,87,69.6,139.6,93.1
		c29,13,56,19.7,82.5,20.3l0.2,0l0.2,0c24.6-0.2,44.1-7.5,59.7-22.4c12.6-11.8,25.1-24.5,37.2-37.6c23.7-25.9,24-56.1,0.8-80.8
		C434,338.2,414.3,318.5,391.6,297z M135,184.1c-13.5,13.1-15.7,24.7-7.8,41.5c19.8,42.7,51.5,75.2,76.9,98.7
		c22.3,20.6,45,36.3,69.5,48.1c15.7,7.5,27,5.8,39.1-6.1c5.4-5.3,10.9-10.8,16.2-16.1c5.2-5.3,10.6-10.7,16-16
		c5.2-5.1,8.1-6.2,9.6-6.2c0,0,0,0,0,0c1.5,0,4.3,1.1,9.4,6.1c17.4,17.3,34.9,34.8,52.2,52.2c4.7,4.7,7.1,8.4,7.1,11
		c0,2.6-2.4,6.4-7.1,11.2l-0.3,0.3c-9.9,10-20.1,20.4-30,30.6c-9.9,10.1-21.8,14-37.6,12.1c-52.1-6.1-96-32.7-132.1-57.9
		c-59.9-41.7-107.6-96.6-141.8-163c-10.7-20.8-18.5-41.8-23.1-62.4c-1.5-6.7-1.9-13.6-2.2-21.2l0-0.4c-1.1-13.8,3.4-25.3,13.9-35.1
		c5.7-5.4,11.2-11,16.6-16.4c4.3-4.4,8.8-8.9,13.4-13.4c4.2-4.1,7.2-6.1,10.2-6.1c2.9,0,5.9,2,9.8,5.9c20.1,20,36.8,36.7,52.6,52.7
		c5.5,5.6,6.6,8.5,6.6,10c0,1.5-1.2,4.6-6.8,10.2C154.7,165,144.1,175.3,135,184.1z"/>
	<path fill="#FFCA00" d="M497.9,222.1c-2.6-16.3-5.8-29.4-10.1-41.1C452.1,83.6,382.7,23.5,281.4,2.4c-13.3-2.7-25.2,4.6-28.4,17.4l0,0.1
		c-2.8,12,5,24,17.9,27.4c3.6,0.9,7.2,1.7,10.6,2.5c5.4,1.2,10.6,2.4,15.5,3.9c72.2,23.2,121.7,71.2,147,142.6
		c2.1,6,3.6,12.2,5.1,18.8c1.2,5.2,2.4,10.6,4,15.9c2.9,9.7,11.7,16,21.5,16c1.5,0,3.1-0.2,4.7-0.5c11.1-2.3,18.6-11.4,18.6-22.8
		v-0.8L497.9,222.1z"/>
	<path fill="#FFCA00" d="M265.5,133.5c2.5,0.8,4.9,1.3,7.3,1.8c31.3,6.7,55.7,23.3,74.5,50.8c8.5,12.5,14.6,27.4,18.5,45.8
		c2.4,11.4,10.2,18.4,20.9,19l0.4,0c0.1,0,0.2,0,0.3,0c7.7,0,14.7-3.1,19.2-8.6c4.3-5.2,6.1-12,4.8-18.7c-3.4-18.2-8.5-33.5-15.8-47
		c-25.7-47.9-65.7-77.5-119.1-88.1c-12.1-2.4-24.5,5.7-27,17.7C246.8,118.8,253.4,130,265.5,133.5z"/>
</g>
</svg>
