<?xml version="1.0" encoding="utf-8"?>
<!-- Generator: Adobe Illustrator 25.0.0, SVG Export Plug-In . SVG Version: 6.00 Build 0)  -->
<svg version="1.1" id="Layer_1" xmlns="http://www.w3.org/2000/svg"
  xmlns:xlink="http://www.w3.org/1999/xlink" x="0px" y="0px"
  viewBox="0 0 500 351.6" style="enable-background:new 0 0 500 351.6;" xml:space="preserve">
<g>
	<path fill="#FFCA00" d="M250.2,0c66.7,0,133.4,0,200.1,0c32,0,49.7,17.6,49.7,49.4c0,84.3,0,168.5,0,252.8c0,31.8-17.7,49.4-49.6,49.4
		c-133.7,0-267.4,0-401.1,0C18,351.5,0.1,333.7,0,302.7C0,218.1,0,133.5,0,48.9C0.1,17.8,17.9,0,49.2,0C116.2,0,183.2,0,250.2,0z
		 M51.2,29.8c2.1,2.4,2.9,3.4,3.8,4.3c54,53.7,107.9,107.5,162,161c20.6,20.4,45.7,20.2,66.5-0.4C337.1,141.6,390.5,88.3,444,35
		c1.4-1.4,4.2-2.3,2.9-5.3C315.5,29.8,184.2,29.8,51.2,29.8z M446,321.9c-39.7-40.5-79.5-81.2-119.2-121.9c-2.7-2.8-4.5-2.7-7.1,0.1
		c-5.4,5.7-11,11.1-16.6,16.5c-31.6,30.6-74.7,30.5-106.4-0.1c-4.7-4.5-9.7-8.8-13.7-13.8c-4.7-5.9-7.7-5-12.8,0.1
		C132.8,240.3,95.1,277.6,57.5,315c-1.9,1.9-5.1,3.1-4.6,6.9C184.4,321.9,315.7,321.9,446,321.9z M30,52.4c0,82.4,0,164.6,0,248.1
		c2.8-2.6,4.7-4.2,6.5-6c37.6-37.3,75-74.8,112.8-111.9c5.7-5.6,5-8.5-0.3-13.6C111.6,132,74.4,94.8,37,57.7
		C35.1,55.7,33.6,53,30,52.4z M470.1,300.4c0-83.8,0-165.8,0-249.2c-2.1,1.7-3.3,2.6-4.4,3.6c-38.7,38.5-77.3,77.1-116.2,115.4
		c-5.1,5-3.6,7.4,0.6,11.5c38.4,37.9,76.6,76,114.8,114C466.2,297.1,467.7,298.3,470.1,300.4z"/>
</g>
</svg>
