<svg width="31" height="30" viewBox="0 0 31 30" fill="none" xmlns="http://www.w3.org/2000/svg">
  <path
    d="M15.4383 29.8698C6.98826 29.8698 0.129139 23.2185 0.135258 15.0246C0.141377 6.8366 7.00049 0.197196 15.4505 0.203129C23.8944 0.209062 30.7412 6.86626 30.729 15.0661C30.7168 23.2363 23.8638 29.8698 15.4383 29.8698ZM24.2248 15.0602C24.2125 13.7964 24.2003 12.5267 24.1391 11.2629C24.0106 8.55726 22.1138 6.71793 19.3359 6.59926C16.7415 6.49246 14.1472 6.48653 11.5528 6.59926C8.73822 6.71793 6.85365 8.55133 6.73127 11.2866C6.62113 13.7905 6.62113 16.2884 6.73127 18.7923C6.85365 21.5275 8.73822 23.3609 11.559 23.4796C14.1533 23.5923 16.7477 23.5923 19.342 23.4796C21.8446 23.3728 23.6251 21.931 24.0473 19.5458C24.2982 18.0625 24.2125 16.5554 24.2248 15.0602Z"
    fill="#FDC901" />
  <path
    d="M15.4564 8.04688C16.8821 8.08841 18.2833 8.01721 19.6783 8.15961C21.2386 8.32574 22.4012 9.41154 22.5113 10.9364C22.7071 13.6657 22.7071 16.3951 22.5113 19.1244C22.4012 20.6433 21.2325 21.7885 19.6783 21.8953C16.8515 22.0911 14.0185 22.0911 11.1855 21.8953C9.62524 21.7885 8.51163 20.6493 8.3403 19.1303C8.21793 18.0089 8.23628 16.8816 8.2424 15.7543C8.24852 14.1523 8.18121 12.5443 8.34642 10.9423C8.50551 9.39968 9.63748 8.32574 11.2345 8.15961C12.6479 8.01721 14.0675 8.09434 15.4564 8.04688ZM19.9353 15.0482C19.9415 12.6393 17.9406 10.6753 15.4686 10.6635C12.96 10.6516 10.9285 12.5977 10.9224 15.0185C10.9163 17.4275 12.9171 19.3914 15.3891 19.4033C17.9039 19.4151 19.9292 17.469 19.9353 15.0482ZM20.1005 9.47681C19.5193 9.48868 19.0481 9.96927 19.0665 10.527C19.0848 11.061 19.5682 11.5179 20.1189 11.5179C20.6941 11.5179 21.1713 11.0491 21.1713 10.4855C21.1652 9.91588 20.6818 9.46494 20.1005 9.47681Z"
    fill="#FDC901" />
  <path
    d="M15.414 12.1823C17.0049 12.1645 18.3755 13.4936 18.3755 15.0422C18.3694 16.5789 17.0416 17.8724 15.4507 17.8902C13.8599 17.908 12.4893 16.5789 12.4893 15.0303C12.4954 13.4936 13.8293 12.2001 15.414 12.1823Z"
    fill="#FDC901" />
</svg>
