<svg width="30" height="29" viewBox="0 0 30 29" fill="none" xmlns="http://www.w3.org/2000/svg">
<path fill-rule="evenodd" clip-rule="evenodd" d="M14.4252 11.0573C12.5181 11.0573 11.0511 12.671 11.0511 14.4314C11.0511 16.3385 12.6648 17.9522 14.4252 17.9522C16.3323 17.9522 17.946 16.3385 17.946 14.4314C17.946 12.671 16.3323 11.0573 14.4252 11.0573Z" fill="#FFCA00"/>
<path fill-rule="evenodd" clip-rule="evenodd" d="M24.5475 0.201504C24.2541 0.201504 23.814 0.0548401 23.5206 0.0548401C17.5059 0.0548401 11.4912 0.0548401 5.4765 0.0548401C2.8359 0.0548401 0.635438 1.81524 0.195338 4.45584C0.195338 4.60254 0.195284 4.74922 0.048584 4.89592V24.2603C0.195284 24.5537 0.195302 24.9938 0.342002 25.2872C1.0755 27.341 2.5425 28.6613 4.743 28.9547H4.88967H24.2541C24.6942 28.808 24.9876 28.808 25.4277 28.6613C27.6282 27.9278 29.0952 25.874 29.0952 23.5268C29.0952 17.5121 29.0952 11.3507 29.0952 5.336C28.9485 2.8421 27.0414 0.641604 24.5475 0.201504ZM24.6942 18.8324C24.5475 20.4461 24.1074 22.0598 23.0805 23.2334C21.9069 24.407 20.2932 24.8471 18.6795 24.8471C17.5059 24.8471 17.2125 24.8471 14.4252 24.8471C11.6379 24.8471 11.1978 24.8471 10.1709 24.8471C8.55722 24.8471 6.94352 24.407 5.76992 23.2334C4.59632 22.0598 4.15617 20.4461 4.15617 18.8324C4.15617 17.6588 4.15617 17.3654 4.15617 14.5781C4.15617 11.7908 4.15617 11.3507 4.15617 10.3238C4.30287 8.71014 4.74302 7.09644 5.76992 5.92284C6.94352 4.74924 8.55722 4.30909 10.1709 4.30909C11.3445 4.30909 11.6379 4.30909 14.4252 4.30909C17.2125 4.30909 17.6526 4.30909 18.6795 4.30909C20.2932 4.30909 21.9069 4.89594 23.0805 5.92284C24.2541 7.09644 24.6942 8.71014 24.6942 10.3238C24.6942 11.4974 24.6942 11.7908 24.6942 14.5781C24.8409 17.3654 24.8409 17.6588 24.6942 18.8324Z" fill="#FFCA00"/>
<path fill-rule="evenodd" clip-rule="evenodd" d="M21.7602 7.2431C20.88 6.3629 19.7064 6.21622 18.6795 6.06952C17.6526 6.06952 17.2125 6.06952 14.5719 6.06952C11.7846 6.06952 11.4912 6.06952 10.4643 6.06952C9.29073 6.06952 8.11708 6.3629 7.38358 7.2431C6.50338 8.1233 6.3567 9.29695 6.21 10.3239C6.21 11.3508 6.21 11.7908 6.21 14.4314C6.21 17.2187 6.21 17.5121 6.21 18.539C6.21 19.7126 6.50338 20.8862 7.38358 21.6197C8.26378 22.4999 9.43743 22.6467 10.4643 22.7934C11.4912 22.7934 11.9313 22.7934 14.5719 22.7934C17.3592 22.7934 17.6526 22.7934 18.6795 22.7934C19.8531 22.7934 21.0267 22.4999 21.7602 21.6197C22.6404 20.7395 22.7871 19.5659 22.9338 18.539C22.9338 17.5121 22.9338 17.072 22.9338 14.4314C22.9338 11.6441 22.9338 11.3508 22.9338 10.3239C22.7871 9.29695 22.6404 8.1233 21.7602 7.2431ZM14.4252 19.8594C11.4912 19.8594 9.144 17.5121 9.144 14.5781C9.144 11.6441 11.4912 9.29694 14.4252 9.29694C17.3592 9.29694 19.7064 11.6441 19.7064 14.5781C19.8531 17.5121 17.3592 19.8594 14.4252 19.8594ZM19.9998 10.3239C19.2663 10.3239 18.8262 9.73698 18.8262 9.15018C18.8262 8.41668 19.413 7.9766 19.9998 7.9766C20.7333 7.9766 21.1734 8.56338 21.1734 9.15018C21.1734 9.73698 20.7333 10.3239 19.9998 10.3239Z" fill="#FFCA00"/>
</svg>
