<svg width="30" height="30" viewBox="0 0 30 30" fill="none" xmlns="http://www.w3.org/2000/svg">
  <path fill-rule="evenodd" clip-rule="evenodd"
    d="M5.17592 29.5314C5.32262 29.5314 5.32262 29.5314 5.17592 29.5314C11.6307 29.5314 18.0855 29.5314 24.3936 29.5314C24.8337 29.3847 25.1271 29.3847 25.5672 29.238C27.621 28.5045 29.088 26.4507 29.088 24.1035C29.088 18.0888 29.088 11.9275 29.088 5.91278C29.088 3.27218 27.1809 1.07163 24.687 0.631527C24.3936 0.631527 23.9535 0.484863 23.6601 0.484863C17.6454 0.484863 11.7774 0.484863 5.76267 0.484863C3.12207 0.484863 1.0683 2.24526 0.481503 4.88586C0.481503 5.03256 0.481539 5.17925 0.334839 5.32595C0.334839 11.7807 0.334839 18.2356 0.334839 24.6904C0.481539 24.9838 0.481467 25.4239 0.628167 25.7173C1.65507 27.9178 3.12212 29.238 5.17592 29.5314ZM5.46934 8.99345C5.61604 8.25995 5.9094 7.52645 6.3495 6.79295C6.7896 6.05945 7.52314 5.61931 8.40334 5.47261C8.69674 5.47261 8.9901 5.47261 9.2835 5.47261C9.4302 5.47261 9.57689 5.61933 9.72359 5.76603C10.017 6.05943 10.1637 6.49955 10.4571 6.79295C11.0439 7.67315 11.484 8.70008 12.0708 9.58028C12.3642 10.0204 12.3642 10.3137 12.0708 10.6071C11.7774 11.0472 11.3373 11.3406 11.0439 11.634C10.7505 11.9274 10.4571 12.2209 10.1637 12.5143C9.87027 12.8077 9.8703 13.101 10.017 13.3944C10.3104 13.9812 10.7505 14.5681 11.0439 15.1549C12.3642 17.3554 14.2713 18.8223 16.4718 19.9959C17.0586 20.2893 17.352 20.2894 17.7921 19.8493C18.0855 19.4092 18.5256 19.1157 18.819 18.6756C18.9657 18.3822 19.2591 18.2356 19.4058 18.0889C19.6992 17.9422 19.9926 17.7955 20.286 18.0889C21.4596 18.8224 22.6332 19.4091 23.8068 20.1426C24.2469 20.436 24.3936 20.7295 24.3936 21.3163C24.2469 22.3432 23.9535 23.3701 22.9266 23.9569C22.3398 24.2503 21.753 24.5437 21.1662 24.6904C20.7261 24.8371 20.286 24.9838 19.6992 24.9838C18.9657 24.9838 18.2322 24.837 17.4987 24.5436C15.4449 23.8101 13.5378 22.9299 11.7774 21.4629C9.57692 19.5558 7.81652 17.502 6.64292 15.0081C6.05612 13.8345 5.61599 12.5142 5.32259 11.1939C5.32259 10.167 5.32264 9.58025 5.46934 8.99345Z"
    fill="#FFCA00" />
</svg>
