<svg width="30" height="29" viewBox="0 0 30 29" fill="none" xmlns="http://www.w3.org/2000/svg">
  <path fill-rule="evenodd" clip-rule="evenodd"
    d="M25.3786 0.201504C25.0852 0.201504 24.6451 0.0548401 24.3517 0.0548401H6.30758C3.66698 0.0548401 1.46652 1.81524 1.02642 4.45584C1.02642 4.60254 1.02637 4.74922 0.879665 4.89592V24.2603C1.02637 24.5537 1.02638 24.9938 1.17308 25.2872C1.90658 27.341 3.37358 28.6613 5.57408 28.9547H5.72084H25.0852C25.5253 28.808 25.8187 28.808 26.2588 28.6613C28.4593 27.9278 29.9263 25.874 29.9263 23.5268C29.9263 20.4461 29.9263 17.5121 29.9263 14.4314C29.9263 11.3507 29.9263 8.4167 29.9263 5.336C29.7796 2.8421 28.0192 0.641604 25.3786 0.201504ZM24.0583 9.0035C23.7649 11.6441 22.738 18.2456 22.1512 21.3263C21.8578 22.6466 21.4177 23.0867 20.9776 23.0867C19.9507 23.2334 19.2172 22.4999 18.337 21.7664C16.87 20.7395 15.9898 20.1527 14.5228 19.2725C12.9091 18.0989 13.936 17.5121 14.9629 16.4852C15.2563 16.1918 19.6573 12.2309 19.6573 11.9375C19.6573 11.9375 19.6573 11.7908 19.5106 11.6441C19.3639 11.4974 19.2172 11.6441 19.2172 11.6441C19.0705 11.6441 16.7233 13.2578 12.0289 16.4852C11.2954 16.9253 10.7086 17.2187 10.1218 17.2187C9.53504 17.2187 8.36137 16.9253 7.48117 16.6319C6.45427 16.3385 5.57408 16.0451 5.57408 15.4583C5.57408 15.1649 6.01422 14.8715 6.89442 14.5781C11.8822 12.3776 15.2563 10.9106 16.87 10.3238C21.5644 8.41674 22.5913 7.97659 23.3248 7.97659C23.9116 7.68319 24.0583 8.27 24.0583 9.0035Z"
    fill="#FFCA00" />
</svg>
