<svg width="31" height="31" viewBox="0 0 31 31" fill="none" xmlns="http://www.w3.org/2000/svg">
  <path
    d="M15.4938 4.14855e-06C24.056 -0.00619585 31 6.9378 31 15.5062C31 24.0684 24.0436 31.0062 15.4814 31C6.92541 30.9938 -0.0123834 24.0374 1.65961e-05 15.469C0.0124166 6.9316 6.95021 4.14855e-06 15.4938 4.14855e-06ZM22.6734 10.819C22.6982 9.5232 22.3262 9.2132 21.4086 9.4054C20.9312 9.5046 20.4786 9.672 20.0322 9.8456C16.7586 11.1166 13.5408 12.5116 10.323 13.9128C9.07061 14.4584 7.81201 14.9978 6.55961 15.5558C6.24961 15.6984 5.86521 15.8472 5.89621 16.2936C5.92721 16.7152 6.31161 16.7958 6.62161 16.9012C7.34081 17.1368 8.07241 17.3352 8.78541 17.577C9.84561 17.9304 10.788 17.7568 11.7118 17.1244C13.64 15.7976 15.593 14.5204 17.5398 13.2246C17.7134 13.1068 17.887 12.989 18.073 12.896C18.2156 12.8216 18.383 12.7596 18.507 12.9332C18.6124 13.082 18.538 13.2122 18.4388 13.3238C18.2342 13.5532 18.0296 13.7826 17.8064 13.9934C16.43 15.3078 15.0412 16.6098 13.6772 17.9366C12.9394 18.6496 12.9704 19.096 13.826 19.685C15.376 20.7576 16.9322 21.824 18.5132 22.8532C19.8028 23.6964 20.6398 23.3182 20.9064 21.7868C21.297 19.5858 21.6814 17.3786 22.041 15.1714C22.289 13.6028 22.4936 12.0404 22.6734 10.819Z"
    fill="#FDC901" />
</svg>
