<svg width="31" height="31" viewBox="0 0 31 31" fill="none" xmlns="http://www.w3.org/2000/svg">
  <path
    d="M15.697 0.203125C24.147 0.203125 31 7.05612 31 15.5061C31 23.95 24.1348 30.803 15.6848 30.7969C7.24091 30.7908 0.394029 23.9194 0.406266 15.4694C0.418504 7.04389 7.2715 0.203125 15.697 0.203125ZM15.7888 22.2C18.0344 22.1572 20.28 22.1572 22.5133 21.9186C23.9573 21.7656 24.7711 21.0191 24.9792 19.5812C25.3585 16.9012 25.3769 14.2212 24.9975 11.5412C24.7772 9.98701 23.9818 9.25887 22.4276 9.08755C21.0938 8.9407 19.7599 8.89787 18.426 8.86115C15.2565 8.77549 12.087 8.78773 8.92969 9.09367C7.46119 9.2344 6.64127 10.0054 6.43323 11.4616C6.05387 14.1233 6.04775 16.7911 6.421 19.4588C6.64127 21.0436 7.43059 21.7656 9.02147 21.9308C11.267 22.1511 13.5249 22.1633 15.7888 22.2Z"
    fill="#FDC901" />
  <path
    d="M13.8311 12.6484C15.4892 13.603 17.0923 14.5269 18.775 15.4998C17.0923 16.4727 15.4892 17.3966 13.8311 18.3511C13.8311 16.4359 13.8311 14.582 13.8311 12.6484Z"
    fill="#FDC901" />
</svg>
