<svg width="40" height="50" viewBox="0 0 40 50" fill="none" xmlns="http://www.w3.org/2000/svg">
  <path
    d="M19.3382 0C29.2177 0.00999947 37.3872 6.73965 39.1671 15.9792C40.4071 22.4388 38.6872 28.0685 34.6074 33.1283C30.5676 38.138 26.6278 43.2277 22.648 48.2875C20.8781 50.5473 18.5082 50.5773 16.7383 48.3375C12.5786 43.0577 8.40877 37.798 4.28899 32.4983C1.24915 28.6085 -0.230774 24.1587 0.0292119 19.249C0.529186 9.69949 7.18884 1.8599 16.2484 0.309984C17.3983 0.119994 18.5582 0.00999947 19.3382 0ZM19.6882 3.34982C17.1283 3.37982 14.6884 3.89979 12.3986 5.06973C3.70902 9.4695 0.0192129 21.8089 7.12884 30.7284C11.1586 35.7781 15.1384 40.8778 19.1182 45.9676C19.5182 46.4876 19.7282 46.5675 20.1782 45.9976C24.2879 40.7579 28.4377 35.5581 32.5475 30.3284C35.3773 26.7286 36.6873 22.6888 36.1573 18.079C35.1774 9.61949 28.1577 3.31983 19.6882 3.34982Z"
    fill="#FDC901" />
  <path
    d="M19.7083 10.2795C24.728 10.3095 28.8378 14.4192 28.7978 19.399C28.7678 24.4187 24.598 28.5085 19.5483 28.4685C14.6185 28.4285 10.5288 24.2687 10.5588 19.329C10.5888 14.3093 14.6885 10.2495 19.7083 10.2795ZM13.9086 19.349C13.9186 22.5088 16.5584 25.1387 19.6983 25.1187C22.8381 25.0987 25.498 22.3988 25.448 19.289C25.398 16.1492 22.8281 13.5993 19.6783 13.5893C16.5084 13.5793 13.8986 16.1792 13.9086 19.349Z"
    fill="#FDC901" />
</svg>
