<svg width="39" height="39" viewBox="0 0 39 39" fill="none" xmlns="http://www.w3.org/2000/svg">
  <path
    d="M0.661943 21.8703C0.661943 17.0223 0.677285 12.1744 0.646602 7.32648C0.638931 6.35996 1.00713 5.78466 1.89694 5.39345C5.69397 3.73656 9.47565 2.05666 13.2497 0.346082C14.0551 -0.0221146 14.7378 0.02391 15.5202 0.376765C19.0411 1.97228 22.5773 3.52178 26.0982 5.10196C26.4817 5.27839 26.7809 5.27071 27.1568 5.07895C30.3018 3.4911 33.4545 1.91859 36.6072 0.338411C36.9447 0.169655 37.2822 -0.0144438 37.6734 0.000897705C38.3331 0.0315808 38.87 0.514839 38.9698 1.19754C39.0004 1.41232 38.9851 1.63477 38.9851 1.85722C38.9851 11.5531 38.9774 21.2489 39.0004 30.9524C39.0004 31.942 38.6476 32.5249 37.7578 32.9622C34.3903 34.6037 31.0458 36.2913 27.7091 37.9865C27.011 38.3394 26.3897 38.3547 25.6686 38.0326C22.0941 36.414 18.5041 34.8415 14.9219 33.2307C14.5307 33.0542 14.2008 33.0312 13.7943 33.2153C10.2734 34.8032 6.74486 36.368 3.21631 37.9328C3.03221 38.0172 2.85578 38.1016 2.67168 38.1783C1.59778 38.6002 0.669614 38.0019 0.661943 36.8359C0.646602 34.5424 0.654272 32.2488 0.654272 29.9552C0.661943 27.2628 0.661943 24.5627 0.661943 21.8703ZM3.40041 34.7878C3.55382 34.7495 3.61519 34.7495 3.66888 34.7265C6.65281 33.4071 9.63674 32.0724 12.6283 30.7607C12.9889 30.5996 12.9812 30.3465 12.9812 30.0396C12.9812 21.3793 12.9812 12.719 12.9735 4.0664C12.9735 3.90532 13.0502 3.71355 12.8661 3.56013C12.6974 3.6215 12.5286 3.67519 12.3675 3.74423C9.59072 4.9869 6.8139 6.23723 4.02174 7.44921C3.54615 7.65632 3.38507 7.88645 3.39274 8.40806C3.40808 16.984 3.40808 25.5676 3.40808 34.1435C3.40041 34.3429 3.40041 34.5424 3.40041 34.7878ZM15.7887 3.52178C15.758 3.65985 15.735 3.71355 15.735 3.77492C15.735 12.5886 15.735 21.41 15.7273 30.2237C15.7273 30.5536 15.8807 30.6686 16.1339 30.7837C19.0258 32.0647 21.9253 33.3457 24.8095 34.6344C25.1777 34.7955 25.3158 34.8108 25.3158 34.3276C25.3081 25.6136 25.3081 16.8919 25.3158 8.17794C25.3158 7.84042 25.1931 7.67934 24.9016 7.5566C23.843 7.09636 22.7921 6.62077 21.7335 6.15285C19.7775 5.28606 17.8138 4.41926 15.7887 3.52178ZM28.1079 34.6114C28.3151 34.6728 28.4531 34.527 28.6065 34.4503C30.9922 33.2613 33.3778 32.057 35.771 30.8834C36.1316 30.707 36.2466 30.5075 36.2466 30.1087C36.2313 21.4714 36.2313 12.8341 36.2466 4.19681C36.2466 3.59849 36.0779 3.65985 35.656 3.87463C33.3317 5.05593 30.9998 6.22956 28.6602 7.37251C28.2077 7.59496 28.0389 7.84042 28.0389 8.36203C28.0543 16.8996 28.0543 25.4372 28.0543 33.9747C28.0619 34.1895 28.0082 34.412 28.1079 34.6114Z"
    fill="#FDC901" />
</svg>
