<svg width="41" height="41" viewBox="0 0 41 41" fill="none" xmlns="http://www.w3.org/2000/svg">
  <path
    d="M29.0296 40.0396C26.8121 39.985 24.6493 39.376 22.5801 38.4468C14.0225 34.6209 7.6746 28.4525 3.36457 20.1682C2.31048 18.1459 1.50626 16.0143 1.14709 13.75C0.733261 11.1499 1.12366 8.77627 3.20841 6.90235C4.12976 6.07469 4.92618 5.1065 5.86314 4.30227C7.5731 2.84217 9.4236 2.84998 11.0789 4.36473C12.8279 5.96538 14.5223 7.64411 16.0995 9.42434C17.4659 10.9703 17.4346 12.8365 16.0604 14.3903C15.264 15.2882 14.3973 16.1158 13.5384 16.9513C13.2573 17.2246 13.2105 17.412 13.3979 17.7711C14.7643 20.3634 16.7007 22.4872 18.8401 24.4392C20.144 25.6338 21.5573 26.6957 23.1345 27.5156C23.5015 27.703 23.7201 27.703 24.0168 27.3906C24.8523 26.5317 25.6955 25.6729 26.5857 24.8764C28.1004 23.5335 30.0681 23.5335 31.5438 24.9311C33.2225 26.5239 34.87 28.1558 36.455 29.8424C38.0947 31.5835 38.0401 33.5824 36.3848 35.3861C35.4244 36.4323 34.4249 37.4474 33.3865 38.4234C32.1918 39.5555 30.7239 40.024 29.0296 40.0396ZM3.27087 12.1181C3.2943 12.7428 3.32553 13.3674 3.46607 13.992C3.8799 15.8425 4.5592 17.6072 5.42589 19.2859C8.26021 24.7906 12.1955 29.3661 17.2707 32.9031C20.6438 35.2611 24.212 37.2834 28.4284 37.7753C29.865 37.9471 31.1221 37.6113 32.1528 36.5573C32.9726 35.714 33.8003 34.8707 34.6279 34.0275C35.6976 32.9343 35.7055 32.2004 34.6279 31.1151C33.2069 29.6862 31.7858 28.2651 30.3569 26.8441C29.3809 25.8759 28.6938 25.8681 27.7022 26.8441C26.8199 27.7108 25.9532 28.6009 25.0709 29.4676C24.3057 30.2171 23.7201 30.2796 22.7597 29.8189C20.7296 28.8429 18.9182 27.539 17.2707 26.0164C14.8111 23.7443 12.5859 21.2769 11.157 18.1928C10.6495 17.1074 10.7744 16.5218 11.6333 15.6864C12.4687 14.8822 13.2964 14.0779 14.1162 13.2503C15.1547 12.1962 15.1547 11.5325 14.1318 10.494C12.703 9.04955 11.2663 7.61288 9.82181 6.1762C8.86143 5.22362 8.06501 5.23143 7.089 6.19181C6.25354 7.00385 5.47274 7.8315 4.64509 8.62011C3.63004 9.57269 3.16156 10.7283 3.27087 12.1181Z"
    fill="#FDC901" stroke="#FDC901" />
  <path
    d="M39.9994 18.3646C39.9994 18.9268 39.6402 19.3562 39.1015 19.4655C38.5627 19.5748 38.024 19.2938 37.86 18.7394C37.5711 17.7868 37.4384 16.803 37.1026 15.8582C34.932 9.74453 30.7547 5.69997 24.5785 3.71673C23.868 3.49029 23.1184 3.36536 22.4001 3.17797C21.7442 3.00619 21.3694 2.43621 21.5022 1.87403C21.6583 1.24158 22.2205 0.890217 22.9076 1.03076C30.9655 2.70949 36.3843 7.43335 39.2108 15.1477C39.5934 16.194 39.8276 17.2871 39.9994 18.3646Z"
    fill="#FDC901" stroke="#FDC901" />
  <path
    d="M31.7083 19.809C31.2164 19.7855 30.8494 19.481 30.7245 18.8798C30.42 17.4431 29.9281 16.0689 29.0926 14.8509C27.4842 12.5085 25.3135 10.9781 22.5183 10.3769C22.3387 10.3378 22.1591 10.2988 21.9873 10.2441C21.3861 10.0724 21.0816 9.54921 21.2143 8.92457C21.3314 8.36239 21.917 7.96418 22.5027 8.0813C26.6409 8.90115 29.7173 11.1733 31.7083 14.8899C32.3174 16.0221 32.6843 17.2479 32.9186 18.505C33.0513 19.1999 32.5204 19.8168 31.7083 19.809Z"
    fill="#FDC901" stroke="#FDC901" />
</svg>
