<svg width="38" height="37" viewBox="0 0 38 37" fill="none" xmlns="http://www.w3.org/2000/svg">
  <path
    d="M19 3.737C27.14 3.737 33.763 10.36 33.763 18.5C33.763 26.64 27.14 33.263 19 33.263C10.86 33.263 4.237 26.64 4.237 18.5C4.237 10.36 10.86 3.737 19 3.737ZM19 0C8.7806 0 0.5 8.2806 0.5 18.5C0.5 28.7194 8.7806 37 19 37C29.2194 37 37.5 28.7194 37.5 18.5C37.5 8.2806 29.2194 0 19 0Z"
    fill="#FDC901" />
  <path
    d="M20.5538 7.98462H16.8242V19.61H16.876L25.0752 27.8018L27.7096 25.16L20.5538 18.0042V7.98462Z"
    fill="#FDC901" />
</svg>
