<?xml version="1.0" encoding="utf-8"?>
<!-- Generator: Adobe Illustrator 25.0.0, SVG Export Plug-In . SVG Version: 6.00 Build 0)  -->
<svg version="1.1" id="Layer_1" xmlns="http://www.w3.org/2000/svg" xmlns:xlink="http://www.w3.org/1999/xlink" x="0px" y="0px"
	 viewBox="0 0 480 500" style="enable-background:new 0 0 480 500;" xml:space="preserve">
<g>
	<path fill="#fdc901" d="M220.3,390c0,33,0,66.1,0,99.1c0,10-0.8,10.8-10.5,10.8c-52,0-104,0-156,0c-18.1,0-27.5-9.3-27.5-27.3
		c-0.1-55.9-0.1-111.8,0-167.7c0-18.1,9.3-27.2,27.5-27.2c51.2,0,102.5,0,153.7,0c11.5,0,12.9,1.4,12.9,13.2
		C220.3,323.9,220.3,356.9,220.3,390z"/>
	<path fill="#fdc901" d="M259.8,389.4c0-33,0-66.1,0-99.1c0-11.2,1.5-12.6,12.7-12.6c51.5,0,103-0.1,154.5,0c17.6,0,26.9,9.3,26.9,27
		c0.1,56.2,0.1,112.3,0,168.5c0,17.2-9.5,26.7-26.5,26.7c-52.5,0.1-105.1-0.1-157.6,0.1c-7.4,0-10.1-2.6-10.1-10
		C259.9,456.5,259.8,422.9,259.8,389.4z"/>
	<path fill="#fdc901" d="M116.6,251.4c-29.9,0-59.8,0-89.7,0c-17.5,0-27.1-9.5-27.2-26.9c-0.1-22.1-0.1-44.2,0-66.3c0.1-17,9.8-26.7,26.6-26.8
		c60.8-0.1,121.7,0,182.5,0c9.4,0,11.4,2.1,11.4,11.6c0.1,32.8-0.1,65.5,0.1,98.3c0,7.3-2.8,10.3-10.2,10.2
		C179,251.3,147.8,251.4,116.6,251.4z"/>
	<path fill="#fdc901" d="M363.4,251.4c-30.2,0-60.3,0-90.5,0c-12.2,0-13.1-0.9-13.1-12.7c0-31.7,0-63.5,0-95.2c0-10.8,1.3-12.1,12.2-12.1
		c60.3,0,120.7,0,181,0c17.8,0,27.4,9.6,27.4,27.6c0.1,21.6,0.1,43.2,0,64.8c-0.1,18.4-9.5,27.6-28,27.7
		C422.7,251.5,393.1,251.4,363.4,251.4z"/>
	<path fill="#fdc901" d="M143.8,114.1c-22,0.2-41.3-2.1-59-11.4c-20-10.5-30.7-31.3-27.2-52.4C62.3,21.1,76.7,5,101.9,1.1
		c21.9-3.4,42.3,2.6,61.9,11.5c18.1,8.1,34.9,18.4,50,31.3c4.7,4.1,9.1,8.6,12.6,13.8c9.5,14,7.3,27.9-6.4,38.2
		c-11.5,8.7-25.3,12-39,14.7C168,113,154.8,114.6,143.8,114.1z M184.9,71.1c0.3-2.4-0.9-3.1-1.9-3.9c-13.2-9.8-27.1-18.2-42.6-23.9
		c-10.1-3.7-20.3-6.3-31.2-5.5c-4.4,0.3-8.7,1.4-10.6,5.5c-5.8,12.3-6.9,23.4,9.3,28.5C133.8,80.1,159.4,77.1,184.9,71.1z"/>
	<path fill="#fdc901" d="M338.7,114.1c-22.2-0.2-44-2.8-64.8-11c-3.6-1.4-7.1-3.2-10.4-5.3c-17.4-11.2-20-27.6-6.7-43.6c11.8-14.2,27.1-24.2,43-33
		C318,11,337,3.2,358.1,0.6C401.6-4.9,433.2,31,421,73c-5.5,19-20,29-37.8,35C368.8,112.9,353.9,114.3,338.7,114.1z M294,69.8
		c9.7,4.4,19.1,5,28.2,6c17.9,1.9,35.9,2,53-5c9.6-3.9,11.9-9.1,9.6-20c-2-9.8-5.9-13.3-16.2-13C339.8,38.4,317.1,53.2,294,69.8z"/>
</g>
</svg>
