<svg width="116" height="23" viewBox="0 0 116 23" fill="none" xmlns="http://www.w3.org/2000/svg">
<path d="M36.7 22C36.8 21.8 36.7999 21.5 36.8999 21.2C37.2999 19.4 40 7.4 40.3 5.9C40.3 5.8 40.3 5.8 40.5 5.8C41.8 5.8 43.0999 5.8 44.3999 5.8C44.4999 5.8 44.6 5.8 44.6 5.8C44.7 5.8 44.7 5.8 44.7 5.9C44.6 6.2 44.6 6.5 44.5 6.9C44.5 6.9 44.5 7.00001 44.5 7.10001C44.6 7.10001 44.6 7.10001 44.6 7.00001C45 6.70001 45.5 6.40002 46 6.20002C46.7 5.90002 47.4 5.70001 48.1 5.60001C48.6 5.50001 49.1 5.50001 49.7 5.60001C50.4 5.70001 51.1 5.80001 51.7 6.10001C52.6 6.50001 53.2 7.10001 53.7 8.00001C53.8 8.10001 53.7999 8.10001 53.8999 8.00001C54.4999 7.50001 55.1 7.00001 55.8 6.60001C56.6 6.10001 57.4999 5.80001 58.3999 5.60001C59.0999 5.50001 59.6999 5.40001 60.3999 5.50001C61.3999 5.60001 62.3 5.9 63.1 6.4C63.9 6.9 64.4 7.6 64.7 8.4C65 9.2 65.2 10 65.1 10.8C65.1 11.3 63 20.3 62.7 21.7V21.8C61.2 21.8 59.7 21.8 58.3 21.8V21.7C58.5 20.9 59.8999 14.8 60.3999 12.6C60.4999 12.1 60.6 11.6 60.5 11.1C60.4 10.5 60.1 9.90001 59.6 9.50001C59.2 9.20001 58.7 9.00001 58.2 9.00001C57.4 9.00001 56.7 9.1 56 9.4C55.4 9.7 54.8999 10.1 54.3999 10.6C54.2999 10.6 54.3 10.7 54.3 10.8C54.3 11.3 51.9999 21.3 51.8999 21.8C50.3999 21.8 49 21.8 47.5 21.8V21.7C47.6 21.2 49.4 13.3 49.6 12.5C49.7 12 49.7 11.4 49.6 10.9C49.5 10.3 49.1 9.8 48.6 9.4C48.3 9.2 47.9 9.10001 47.5 9.00001C46.8 8.90001 46.0999 9 45.3999 9.3C44.7999 9.5 44.3 9.9 43.8 10.4C43.7 10.5 43.7 10.5 43.7 10.6C43.6 10.8 41.7999 19.2 41.3999 20.8C41.2999 21.2 41.3 21.5 41.2 21.8C39.6 22 38.1 22 36.7 22Z" fill="#1F3664"/>
<path d="M21.6 0.299988C21.5 0.499988 17.5 21.8 17.5 21.9C15.9 21.9 14.4 21.9 12.8 21.9V21.8C13 20.6 13.3 19.4 13.5 18.1C13.8 16.6 14.1 15.1 14.4 13.5C14.4 13.3 14.4 13.3 14.3 13.3C11.8 13.3 9.29999 13.3 6.79999 13.3C6.59999 13.3 6.59998 13.3 6.59998 13.5C6.49998 14.2 4.99998 21.7 4.99998 21.8C3.49998 21.8 1.89999 21.8 0.399986 21.8H0.299988L0.399986 21.7C0.499986 21.1 4.49998 0.300012 4.49998 0.200012C6.09998 0.200012 7.59998 0.200012 9.19998 0.200012C9.19998 0.400012 7.89998 7.6 7.69998 8.5C7.69998 8.6 7.69999 8.60001 7.79999 8.60001C7.79999 8.60001 14.1 8.60001 15.4 8.60001C15.5 8.60001 15.5 8.6 15.5 8.5C15.6 7.9 16.9 0.699988 17 0.299988C18.5 0.299988 20 0.299988 21.6 0.299988Z" fill="#1F3664"/>
<path d="M97.4 22C97.5 21.7 97.5 21.4 97.6 21.2C98 19.3 102.1 1.8 102.4 0.5V0.399994C103.8 0.399994 105.2 0.399994 106.7 0.399994C106.7 0.399994 106.7 0.500006 106.7 0.600006C106.6 0.900006 105.7 5.00001 105.3 6.70001C105.3 6.80001 105.2 6.90001 105.2 7.10001C105.3 7.10001 105.3 7.1 105.3 7C106.4 6.3 107.5 5.89999 108.8 5.79999C109.4 5.69999 110.1 5.69999 110.8 5.79999C111.4 5.89999 112 6.00001 112.6 6.20001C113.2 6.40001 113.7 6.80001 114.2 7.20001C115.1 8.10001 115.6 9.19999 115.7 10.4C115.8 11.1 115.7 11.8 115.5 12.5C115.2 13.8 113.9 19.7 113.5 21.4C113.4 21.6 113.4 21.9 113.4 22.1C111.9 22.1 110.4 22.1 108.9 22.1C109.1 21.1 111.1 12.3 111.1 11.8C111.1 11.4 111 11 110.8 10.7C110.4 10 109.8 9.6 109 9.5C108.4 9.4 107.8 9.4 107.2 9.5C106.2 9.7 105.3 10.1 104.5 10.8C104.4 10.8 104.4 10.9 104.4 11C104 12.6 102.4 19.7 102 21.6C101.9 21.8 101.9 22 101.9 22.2C100.4 22 98.9 22 97.4 22Z" fill="#1F3664"/>
<path d="M86.4 21.9C85 21.8 83.7 21.5 82.5 20.8C81.2 20.1 80.1 19.1 79.4 17.8C79 17.2 78.8 16.5 78.6 15.8C78.5 15.3 78.4 14.8 78.4 14.3C78.4 13.4 78.5 12.5 78.8 11.6C79.2 10.6 79.7 9.60001 80.4 8.70001C81.4 7.50001 82.6 6.6 84 6C84.7 5.7 85.4 5.49999 86.1 5.39999C86.9 5.29999 87.7 5.20001 88.5 5.20001C89.3 5.20001 90.1 5.40001 90.9 5.60001C92.1 6.00001 93.1 6.49999 94 7.39999C94.8 8.09999 95.4 9 95.8 10C96 10.6 96.2 11.1 96.3 11.7C96.4 12.3 96.4 13 96.4 13.6C96.3 14.9 95.8 16.2 95.1 17.3C94.2 18.7 93 19.8 91.5 20.7C90.7 21.1 90 21.4 89.1 21.6C88.7 21.7 88.3 21.8 87.8 21.8C87.5 21.8 87.3 21.8 87 21.9C87.2 22 86.5 21.9 86.4 21.9ZM92.2 13.1C92.2 12.8 92.2 12.5 92.1 12.2C91.8 10.8 90.8 9.60001 89.5 9.20001C88.7 8.90001 87.9 8.9 87.1 9C86.2 9.1 85.3 9.50001 84.6 10.1C83.2 11.3 82.5 13.1 82.9 15C83.2 16.4 84.3 17.6 85.7 18.1C86.5 18.3 87.3 18.4 88.1 18.2C89.2 18 90.2 17.4 91 16.6C91.8 15.6 92.2 14.4 92.2 13.1Z" fill="#1F3664"/>
<path d="M25.3999 21.9C24.7999 21.9 24.2 21.8 23.6 21.6C22.8 21.4 21.9999 21 21.3999 20.4C20.6999 19.7 20.3 18.9 20.1 17.9C20 17.1 20.1 16.4 20.3 15.7C20.5 15.1 20.8999 14.5 21.3999 14C21.9999 13.4 22.5999 13 23.3999 12.7C24.0999 12.4 24.8 12.2 25.6 12.1C26.4 12 27.2 12 28.1 12C28.9 12 29.7 12.2 30.5 12.4C31 12.5 31.3999 12.6 31.8999 12.8C31.8999 12.8 31.9 12.8 32 12.8H32.1C32.2 12.4 32.2999 12 32.3999 11.6C32.3999 11.2 32.4 10.8 32.3 10.5C32.2 10 31.8 9.59999 31.3 9.29999C30.9 9.09999 30.6 8.99999 30.2 8.89999C29.5 8.79999 28.7 8.69999 28 8.79999C27.1 8.89999 26.1 9.09999 25.2 9.39999C24.8 9.49999 24.4 9.59999 24 9.79999H23.8999L23.8 9.70001C23.5 8.70001 23.1 7.79999 22.8 6.79999C22.8 6.69999 22.7999 6.70001 22.8999 6.70001C22.9999 6.70001 23.2 6.60001 23.3 6.60001C24.2 6.30001 25.1 5.99999 26 5.79999C26.6 5.69999 27.2999 5.6 27.8999 5.5C28.6999 5.4 29.5999 5.39999 30.3999 5.39999C31.2999 5.39999 32.2 5.59999 33 5.79999C33.8 5.99999 34.5 6.39999 35.1 6.89999C35.9 7.59999 36.4 8.39999 36.6 9.39999C36.7 9.99999 36.7 10.5 36.7 11.1C36.6 11.7 35.6 16.2 35.2 17.9C34.9 19.1 34.6999 20.3 34.3999 21.5C34.3999 21.6 34.4 21.6 34.3 21.6C32.9 21.6 31.5 21.6 30.2 21.6H30.1C30.2 21.3 30.2 21 30.3 20.7C30.2 20.7 30.2 20.7 30.1 20.8C29.4 21.2 28.6999 21.5 27.8999 21.7C27.3999 21.8 26.9 21.9 26.5 21.9C26.4 21.9 25.4999 21.9 25.3999 21.9ZM27.6 19C27.9 19 28.3 19 28.7 18.9C29.4 18.8 30.1 18.5 30.7 18.2C30.8 18.2 30.8 18.1 30.8 18C30.9 17.8 30.9 17.5 31 17.3C31.1 16.8 31.1999 16.3 31.3999 15.8C31.3999 15.7 31.4 15.7 31.3 15.7C31 15.6 30.8 15.5 30.5 15.4C29.5 15.1 28.4999 15 27.3999 15C26.8999 15 26.3999 15.1 25.8999 15.2C25.4999 15.3 25.1999 15.5 24.8999 15.7C24.4999 16 24.3 16.4 24.2 16.9C24.1 17.4 24.3 17.9 24.7 18.3C24.8 18.4 24.9 18.5 25.1 18.6C25.4 18.8 25.7 18.9 26 18.9C26.6 18.9 27 19 27.6 19Z" fill="#1F3664"/>
<path d="M65.6 22C65.7 21.7 68.6 6.6 68.7 6C68.7 6 68.7 5.89999 68.8 5.89999H68.9C70.3 5.89999 71.6 5.89999 73 5.89999C73.1 5.89999 73.1 5.89999 73.2 5.89999C73.1 6.39999 73 6.89999 72.9 7.39999C73 7.39999 73 7.39999 73 7.29999C73.4 6.89999 73.8 6.59999 74.3 6.29999C74.9 5.89999 75.6 5.70001 76.3 5.60001C76.7 5.50001 77.2 5.5 77.6 5.5C78.1 5.5 78.6 5.60001 79 5.70001C79.1 5.70001 79.3 5.79999 79.4 5.89999C79.5 5.89999 79.5 5.9 79.5 6C79.4 6.4 79 8.7 78.8 9.5V9.60001C78.7 9.60001 78.7 9.5 78.6 9.5C78.3 9.4 77.9 9.30001 77.6 9.20001C77.2 9.10001 76.7 9.10001 76.3 9.10001C75.6 9.10001 75 9.30001 74.3 9.60001C73.5 10 72.8 10.5 72.2 11.3L72.1 11.4C71.9 12.3 70.2 21.4 70 22C68.5 22 67.1 22 65.6 22Z" fill="#1F3664"/>
</svg>
