<svg width="116" height="23" viewBox="0 0 116 23" fill="none" xmlns="http://www.w3.org/2000/svg">
<path d="M36.5 22C36.6 21.8 36.6 21.5 36.7 21.2C37.1 19.4 39.8 7.4 40.2 5.9C40.2 5.8 40.2 5.8 40.4 5.8C41.7 5.8 43 5.8 44.3 5.8C44.4 5.8 44.5 5.8 44.5 5.8C44.6 5.8 44.6 5.8 44.6 5.9C44.5 6.2 44.5 6.5 44.4 6.9C44.4 6.9 44.4 7.00001 44.4 7.10001C44.5 7.10001 44.5 7.10001 44.5 7.00001C44.9 6.70001 45.4 6.40002 45.9 6.20002C46.6 5.90002 47.3 5.70001 48 5.60001C48.5 5.50001 49 5.50001 49.5 5.60001C50.2 5.70001 50.9 5.80001 51.5 6.10001C52.4 6.50001 53 7.10001 53.5 8.00001C53.6 8.10001 53.6 8.10001 53.7 8.00001C54.3 7.50001 54.9 7.00001 55.6 6.60001C56.4 6.10001 57.3 5.80001 58.2 5.60001C58.9 5.50001 59.5 5.40001 60.2 5.50001C61.2 5.60001 62.1 5.9 62.9 6.4C63.7 6.9 64.2 7.6 64.5 8.4C64.8 9.2 65 10 64.9 10.8C64.9 11.3 62.8 20.3 62.5 21.7V21.8C61 21.8 59.5 21.8 58.1 21.8V21.7C58.3 20.9 59.7 14.8 60.2 12.6C60.3 12.1 60.4 11.6 60.3 11.1C60.2 10.5 59.9 9.90001 59.4 9.50001C59 9.20001 58.5 9.00001 58 9.00001C57.2 9.00001 56.5 9.1 55.8 9.4C55.2 9.7 54.7 10.1 54.2 10.6C54.2 10.6 54.1 10.7 54.1 10.8C54.1 11.3 51.8 21.3 51.7 21.8C50.2 21.8 48.8 21.8 47.3 21.8V21.7C47.4 21.2 49.2 13.3 49.4 12.5C49.5 12 49.5 11.4 49.4 10.9C49.3 10.3 48.9 9.8 48.4 9.4C48.1 9.2 47.7 9.10001 47.3 9.00001C46.6 8.90001 45.9 9 45.2 9.3C44.6 9.5 44.1 9.9 43.6 10.4C43.5 10.5 43.5 10.5 43.5 10.6C43.5 10.8 41.6 19.2 41.2 20.8C41.1 21.2 41.1 21.5 41 21.8C39.5 22 38 22 36.5 22Z" fill="white"/>
<path d="M21.4 0.299988C21.3 0.499988 17.3 21.8 17.3 21.9C15.8 21.9 14.2 21.9 12.7 21.9V21.8C12.9 20.6 13.2 19.4 13.4 18.1C13.7 16.6 14 15.1 14.3 13.5C14.3 13.3 14.3 13.3 14.2 13.3C11.7 13.3 9.20001 13.3 6.70001 13.3C6.50001 13.3 6.5 13.3 6.5 13.5C6.4 14.2 4.89999 21.7 4.89999 21.8C3.39999 21.8 1.89999 21.8 0.299988 21.8H0.200012V21.7C0.300012 21.1 4.29999 0.300012 4.29999 0.200012C5.79999 0.200012 7.39999 0.200012 8.89999 0.200012C8.89999 0.400012 7.59999 7.6 7.39999 8.5C7.39999 8.6 7.4 8.60001 7.5 8.60001C7.5 8.60001 13.8 8.60001 15.1 8.60001C15.2 8.60001 15.2 8.6 15.2 8.5C15.3 7.9 16.6 0.699988 16.7 0.299988C18.3 0.299988 19.9 0.299988 21.4 0.299988Z" fill="white"/>
<path d="M97.2 22C97.3 21.7 97.3 21.4 97.4 21.2C97.8 19.3 101.9 1.8 102.2 0.5V0.399994C103.6 0.399994 105 0.399994 106.5 0.399994C106.5 0.399994 106.5 0.500006 106.5 0.600006C106.4 0.900006 105.5 5.00001 105.1 6.70001C105.1 6.80001 105 6.90001 105 7.10001C105.1 7.10001 105.1 7.1 105.1 7C106.2 6.3 107.3 5.89999 108.6 5.79999C109.2 5.69999 109.9 5.69999 110.6 5.79999C111.2 5.89999 111.8 6.00001 112.4 6.20001C113 6.40001 113.5 6.80001 114 7.20001C114.9 8.10001 115.4 9.19999 115.5 10.4C115.6 11.1 115.5 11.8 115.3 12.5C115 13.8 113.7 19.7 113.3 21.4C113.3 21.6 113.2 21.9 113.2 22.1C111.7 22.1 110.2 22.1 108.7 22.1C108.9 21.1 110.9 12.3 110.9 11.8C110.9 11.4 110.8 11 110.6 10.7C110.2 10 109.6 9.6 108.8 9.5C108.2 9.4 107.6 9.4 107 9.5C106 9.7 105.1 10.1 104.3 10.8C104.2 10.8 104.2 10.9 104.2 11C103.8 12.6 102.2 19.7 101.8 21.6C101.8 21.8 101.7 22 101.7 22.2C100.2 22 98.7 22 97.2 22Z" fill="white"/>
<path d="M86.2 21.9C84.8 21.8 83.5 21.5 82.3 20.8C81 20.1 79.9 19.1 79.2 17.8C78.8 17.2 78.6 16.5 78.4 15.8C78.3 15.3 78.2 14.8 78.2 14.3C78.2 13.4 78.3 12.5 78.6 11.6C79 10.6 79.5 9.60001 80.2 8.70001C81.2 7.50001 82.4 6.6 83.8 6C84.5 5.7 85.2 5.49999 85.9 5.39999C86.7 5.29999 87.5 5.20001 88.3 5.20001C89.1 5.20001 89.9 5.40001 90.7 5.60001C91.9 6.00001 92.9 6.49999 93.8 7.39999C94.6 8.09999 95.2 9 95.6 10C95.8 10.6 96 11.1 96.1 11.7C96.2 12.3 96.2 13 96.2 13.6C96.1 14.9 95.6 16.2 94.9 17.3C94 18.7 92.8 19.8 91.3 20.7C90.5 21.1 89.8 21.4 88.9 21.6C88.5 21.7 88.1 21.8 87.6 21.8C87.3 21.8 87.1 21.8 86.8 21.9C87 22 86.3 21.9 86.2 21.9ZM92 13.1C92 12.8 92 12.5 91.9 12.2C91.6 10.8 90.6 9.60001 89.3 9.20001C88.5 8.90001 87.8 8.9 86.9 9C85.9 9.1 85.1 9.50001 84.4 10.1C83 11.3 82.3 13.1 82.7 15C83 16.4 84.1 17.6 85.5 18.1C86.3 18.3 87.1 18.4 87.9 18.2C89 18 90 17.4 90.8 16.6C91.6 15.6 92 14.4 92 13.1Z" fill="white"/>
<path d="M25.2 21.9C24.6 21.9 24 21.8 23.4 21.6C22.6 21.4 21.8 21 21.2 20.4C20.5 19.7 20.1 18.9 19.9 17.9C19.8 17.1 19.9 16.4 20.1 15.7C20.3 15.1 20.7 14.5 21.2 14C21.8 13.4 22.4 13 23.2 12.7C23.9 12.4 24.6 12.2 25.4 12.1C26.2 12 27 12 27.9 12C28.7 12 29.5 12.2 30.3 12.4C30.8 12.5 31.3 12.6 31.7 12.8C31.7 12.8 31.7 12.8 31.8 12.8C31.8 12.8 31.8 12.8 31.9 12.8C32 12.4 32.1 12 32.2 11.6C32.2 11.2 32.2 10.8 32.1 10.5C32 10 31.6 9.59999 31.1 9.29999C30.7 9.09999 30.4 8.99999 30 8.89999C29.3 8.79999 28.5 8.69999 27.8 8.79999C26.8 8.89999 25.9 9.09999 25 9.39999C24.6 9.49999 24.2 9.59999 23.8 9.79999H23.7C23.7 9.79999 23.7 9.70001 23.6 9.70001C23.3 8.70001 22.9 7.79999 22.6 6.79999C22.6 6.69999 22.6 6.70001 22.7 6.70001C22.8 6.70001 23 6.60001 23.1 6.60001C24 6.30001 24.9 5.99999 25.8 5.79999C26.4 5.69999 27.1 5.6 27.7 5.5C28.5 5.4 29.4 5.39999 30.2 5.39999C31.1 5.39999 32 5.59999 32.8 5.79999C33.6 5.99999 34.3 6.39999 34.9 6.89999C35.7 7.59999 36.2 8.39999 36.4 9.39999C36.5 9.99999 36.5 10.5 36.4 11.1C36.3 11.7 35.3 16.2 34.9 17.9C34.6 19.1 34.4 20.3 34.1 21.5C34.1 21.6 34.1 21.6 34 21.6C32.6 21.6 31.2 21.6 29.9 21.6H29.8C29.9 21.3 29.9 21 30 20.7C29.9 20.7 29.9 20.7 29.8 20.8C29.1 21.2 28.4 21.5 27.6 21.7C27.1 21.8 26.6 21.9 26.1 21.9C26.2 21.9 25.3 21.9 25.2 21.9ZM27.4 19C27.7 19 28.1 19 28.5 18.9C29.2 18.8 29.9 18.5 30.5 18.2C30.6 18.2 30.6 18.1 30.6 18C30.6 17.8 30.7 17.5 30.8 17.3C30.9 16.8 31 16.3 31.2 15.8C31.2 15.7 31.2 15.7 31.1 15.7C30.8 15.6 30.6 15.5 30.3 15.4C29.3 15.1 28.3 15 27.2 15C26.7 15 26.2 15.1 25.7 15.2C25.3 15.3 25 15.5 24.7 15.7C24.3 16 24.1 16.4 24 16.9C23.9 17.4 24.1 17.9 24.5 18.3C24.6 18.4 24.7 18.5 24.9 18.6C25.2 18.8 25.5 18.9 25.8 18.9C26.4 18.9 26.8 19 27.4 19Z" fill="white"/>
<path d="M65.4 22C65.4 21.7 68.4 6.6 68.5 6C68.5 6 68.5 5.89999 68.6 5.89999H68.7C70.1 5.89999 71.4 5.89999 72.8 5.89999C72.8 5.89999 72.9 5.89999 73 5.89999C72.9 6.39999 72.8 6.89999 72.7 7.39999C72.8 7.39999 72.8 7.39999 72.8 7.29999C73.2 6.89999 73.6 6.59999 74.1 6.29999C74.7 5.89999 75.4 5.70001 76.1 5.60001C76.5 5.50001 77 5.5 77.4 5.5C77.9 5.5 78.4 5.60001 78.8 5.70001C78.9 5.70001 79.1 5.79999 79.2 5.89999C79.3 5.89999 79.3 5.9 79.3 6C79.2 6.4 78.8 8.7 78.6 9.5V9.60001C78.5 9.60001 78.5 9.5 78.4 9.5C78.1 9.4 77.7 9.30001 77.4 9.20001C77 9.10001 76.5 9.10001 76.1 9.10001C75.4 9.10001 74.8 9.30001 74.1 9.60001C73.3 10 72.6 10.5 72 11.3L71.9 11.4C71.7 12.3 70 21.4 69.8 22C68.4 22 66.9 22 65.4 22Z" fill="white"/>
</svg>
