<svg width="96" height="96" viewBox="0 0 96 96" fill="none" xmlns="http://www.w3.org/2000/svg">
  <path
    d="M56.7181 71.9954C47.6779 71.9954 38.6185 71.8035 29.5783 72.053C22.5918 72.2449 16.1427 65.2201 20.7684 56.6213C22.4574 53.4543 24.3384 50.3834 26.2002 47.3124C26.7184 46.4487 26.776 45.7769 26.3345 44.8364C20.9411 33.5505 15.5861 22.2263 10.2503 10.902C9.8088 9.96151 9.30977 9.55844 8.23492 9.61602C5.83572 9.71199 3.43651 9.61602 1.0373 9.65441C0.288749 9.6736 -0.0183498 9.46247 0.000843872 8.65634C0.0584249 6.10358 0.0584249 3.55083 0.0200375 0.99807C0.000843872 0.191937 0.288749 0 1.0565 0C5.70136 0.0383873 10.3462 0.0383873 14.9911 0C15.7205 0 16.0276 0.307099 16.2963 0.940489C17.3711 3.41647 18.5611 5.83487 19.5784 8.33005C20.0198 9.3857 20.5956 9.67361 21.6897 9.67361C44.5301 9.63522 67.3706 9.65441 90.1919 9.65441C91.3435 9.65441 92.4759 9.63522 93.5508 10.1918C95.9308 11.4394 96.545 14.4144 95.1822 16.6985C92.4375 21.3434 89.8848 26.0842 87.2744 30.7866C84.2418 36.2376 81.1325 41.6502 78.2534 47.178C76.1613 51.1703 73.0135 52.8785 68.5606 52.8401C57.5626 52.7442 46.5647 52.821 35.5859 52.7826C34.4919 52.7826 33.8777 53.0705 33.3978 54.0685C32.4573 56.0455 31.3633 57.9649 30.346 59.9034C29.3096 61.842 29.6359 62.3986 31.8239 62.3986C49.3094 62.3986 66.7948 62.3986 84.2994 62.3986C86.7178 62.3986 86.3531 62.0723 86.3723 64.4331C86.3915 66.5252 86.3147 68.6365 86.4107 70.7286C86.4491 71.8227 86.0652 72.0338 85.048 72.0338C75.6047 71.9762 66.1614 71.9954 56.7181 71.9954Z"
    fill="#FDC901" />
  <path
    d="M38.4074 86.3524C38.4074 91.6114 34.0696 95.9684 28.8106 95.9684C23.6283 95.9684 19.2713 91.6306 19.2521 86.4675C19.2329 81.1893 23.5515 76.7939 28.7722 76.7747C34.0121 76.7555 38.3882 81.1125 38.4074 86.3524Z"
    fill="#FDC901" />
  <path
    d="M86.3723 86.3524C86.3723 91.6114 82.0345 95.9684 76.7754 95.9684C71.5931 95.9684 67.2362 91.6306 67.217 86.4675C67.1978 81.1893 71.5164 76.7939 76.737 76.7747C81.9961 76.7555 86.3723 81.1125 86.3723 86.3524Z"
    fill="#FDC901" />
</svg>
