<svg width="71" height="94" viewBox="0 0 71 94" fill="none" xmlns="http://www.w3.org/2000/svg">
  <path
    d="M35.5546 0C52.7301 0.0188027 67.3491 12.2594 70.4547 29.0878C71.9507 37.2105 70.2274 44.8256 67.0082 52.2151C62.1794 63.3463 55.0782 72.9921 47.2574 82.1678C43.9814 86.0223 40.516 89.7077 36.9181 93.2614C35.9523 94.2015 35.1002 94.2767 34.1344 93.299C22.8482 81.9986 12.6604 69.852 5.50236 55.468C2.15059 48.7366 -0.178606 41.742 0.0107593 34.0893C0.408427 17.7685 12.9444 3.34688 29.0973 0.601686C31.2371 0.225632 33.3769 0.0188027 35.5546 0ZM35.5736 51.4254C44.4548 51.4066 51.7643 44.1487 51.7833 35.3491C51.8022 26.4178 44.5306 19.1411 35.5925 19.1223C26.5408 19.1035 19.2124 26.3802 19.2503 35.3491C19.2692 44.2239 26.5977 51.4442 35.5736 51.4254Z"
    fill="#FDC901" />
</svg>
