<svg width="101" height="65" viewBox="0 0 101 65" fill="none" xmlns="http://www.w3.org/2000/svg">
  <path
    d="M30.5231 0C39.6837 0 48.8443 0 58.0232 0C60.5516 0 60.9913 0.464649 60.9913 3.06668C60.9913 19.2365 60.9913 35.3877 60.9913 51.5574C60.9913 54.2152 60.5332 54.6799 57.895 54.6985C50.4016 54.6985 42.9082 54.6985 35.3966 54.6985C32.4285 54.6985 32.3003 54.5869 31.6041 51.7247C30.4498 46.8738 26.5841 43.6026 21.5824 43.2123C16.3059 42.8035 11.7256 45.4798 9.89345 50.1077C9.56366 50.9441 9.30717 51.8176 9.17892 52.6912C8.97739 54.0108 8.26286 54.6613 6.98038 54.6799C5.36811 54.6985 3.75585 54.717 2.14358 54.6799C0.751169 54.6613 0.0732848 53.8621 0.0183212 52.4681C0 51.9477 0.0183212 51.4087 0.0183212 50.8883C0 35.0345 0 19.1993 0 3.34547C0 0.390305 0.384745 0 3.35278 0C12.4035 0 21.4724 0 30.5231 0Z"
    fill="#FDC901" />
  <path
    d="M64.9852 32.8599C64.9852 26.6336 64.9852 20.3887 64.9852 14.1624C64.9852 11.7463 65.5715 11.1515 67.8983 11.1515C72.2771 11.1515 76.6558 11.1701 81.0163 11.1329C82.1705 11.1143 82.9766 11.5232 83.7095 12.4154C88.8028 18.6231 93.9327 24.8122 99.0443 31.0013C99.7222 31.8191 100.015 32.674 100.015 33.752C99.9787 39.7739 99.997 45.7957 99.997 51.8176C99.997 53.862 99.5024 54.5311 97.9084 54.6984C95.032 54.9958 94.2259 54.5497 93.7678 52.4123C92.6869 47.3941 89.4807 44.2159 84.5523 43.3424C79.7155 42.4874 75.1169 44.5319 72.5885 48.658C71.874 49.8475 71.4709 51.1299 71.2144 52.4867C70.8297 54.5125 70.0052 54.9586 67.1655 54.6984C65.5532 54.5497 64.9852 53.8434 64.9852 51.8919C64.9852 45.5355 64.9852 39.1977 64.9852 32.8599ZM79.4956 29.31C82.2071 29.31 84.9187 29.31 87.6119 29.31C88.528 29.31 89.4257 29.2171 89.8654 28.2506C90.3234 27.2655 89.9937 26.4292 89.3524 25.63C86.7691 22.5075 84.2042 19.3851 81.6575 16.2627C81.0896 15.5564 80.3934 15.2033 79.4956 15.2033C76.7841 15.2033 74.0725 15.1661 71.3793 15.2218C69.6571 15.2404 69.0525 15.8909 69.0525 17.6566C69.0342 20.6118 69.0342 23.5669 69.0525 26.5221C69.0525 28.7524 69.5838 29.2914 71.8557 29.31C74.4023 29.3286 76.949 29.31 79.4956 29.31Z"
    fill="#FDC901" />
  <path
    d="M82.5553 64.1214C77.7551 64.14 74.0543 60.3856 74.0726 55.5347C74.0909 50.7767 77.8101 47.0038 82.482 46.9852C87.2272 46.9666 90.983 50.7953 90.9647 55.6091C90.9464 60.3671 87.2638 64.1028 82.5553 64.1214ZM85.0103 55.4975C84.9737 54.2151 83.6729 52.9698 82.4454 53.0256C81.1812 53.0814 79.9903 54.3824 80.027 55.6462C80.0636 56.9472 81.2911 58.1367 82.5919 58.081C83.8744 58.0438 85.0653 56.7986 85.0103 55.4975Z"
    fill="#FDC901" />
  <path
    d="M20.4281 64.1216C15.7562 64.103 12.0187 60.3115 12.0187 55.5721C12.0187 50.7955 15.8478 46.9482 20.5747 46.9854C25.2099 47.0225 28.9841 50.8884 28.9841 55.5721C29.0024 60.3673 25.1916 64.1402 20.4281 64.1216ZM22.9931 55.4977C22.9564 54.2153 21.6739 52.9701 20.4281 53.0072C19.1456 53.0444 18.0097 54.2897 18.028 55.6093C18.0647 56.966 19.2189 58.0998 20.538 58.0626C21.8572 58.0626 23.048 56.7988 22.9931 55.4977Z"
    fill="#FDC901" />
</svg>
